#!OML:ASF F:\VICON\USERDATA\INSTALL\Justin_Nancy\Justin_Nancy.ASF
:FULLY-SPECIFIED
:DEGREES
81
root -8.77394 17.3943 -22.9529 -0.608919 -6.46529 -0.674745
lowerback 5.79154 2.08841 0.271863
upperback 0.288835 2.85592 1.82388
thorax -3.02744 1.42926 1.48794
lowerneck -16.1283 -3.77335 -8.9443
upperneck 22.4139 -4.3639 5.90976
head 10.1423 -2.1026 2.99556
rclavicle 5.54112e-015 5.96354e-015
rhumerus -26.7099 -10.8956 -79.4375
rradius 33.3362
rwrist 6.24411
rhand -14.1084 10.3536
rfingers 7.12502
rthumb 12.0246 -19.2809
lclavicle 5.54112e-015 5.96354e-015
lhumerus -34.1034 15.4478 83.214
lradius 18.1384
lwrist -17.3549
lhand -14.0279 27.4437
lfingers 7.12502
lthumb 12.1022 57.0737
rfemur 7.79633 3.12305 24.7567
rtibia 35.5062
rfoot -6.39354 -3.79208
rtoes -12.1513
lfemur -22.7346 -2.89946 -19.5021
ltibia 22.1295
lfoot -0.140388 -1.54542
ltoes -3.48108
82
root -8.75525 17.4174 -22.7729 -0.660577 -6.39604 -0.357294
lowerback 5.71189 2.03308 -0.0632393
upperback 0.116032 2.76215 1.79987
thorax -3.17347 1.38835 1.65808
lowerneck -15.8094 -3.79721 -9.02856
upperneck 22.4999 -4.38902 5.83275
head 10.1156 -2.13641 2.98244
rclavicle -9.4547e-015 4.77083e-015
rhumerus -27.4085 -11.4479 -79.1141
rradius 33.0209
rwrist 6.85091
rhand -14.1635 10.408
rfingers 7.12502
rthumb 11.9715 -19.2296
lclavicle -9.4547e-015 4.77083e-015
lhumerus -34.5058 15.5819 83.0388
lradius 18.1864
lwrist -17.2379
lhand -13.5158 29.3552
lfingers 7.12502
lthumb 12.5959 58.9555
rfemur 6.6246 2.63638 24.0344
rtibia 38.0886
rfoot -4.07904 -3.26718
rtoes -11.2041
lfemur -22.1386 -2.73579 -20.0729
ltibia 22.2743
lfoot -0.292276 -1.44432
ltoes -2.93632
83
root -8.73506 17.4352 -22.6017 -0.640784 -6.26721 -0.131424
lowerback 5.73332 1.9767 -0.260038
upperback -0.101722 2.67665 1.75782
thorax -3.41487 1.35033 1.72734
lowerneck -15.7059 -3.80901 -9.12272
upperneck 22.7933 -4.41882 5.89645
head 10.2078 -2.15542 3.02218
rclavicle 1.51946e-014 -2.78299e-015
rhumerus -28.166 -12.1244 -78.7467
rradius 32.6679
rwrist 7.21026
rhand -14.8628 9.78652
rfingers 7.12502
rthumb 11.2971 -19.8892
lclavicle 1.51946e-014 -2.78299e-015
lhumerus -34.8674 15.8973 82.6984
lradius 18.233
lwrist -17.7045
lhand -13.8167 29.9092
lfingers 7.12502
lthumb 12.3058 59.5271
rfemur 5.29502 2.10226 23.4188
rtibia 40.6418
rfoot -1.5507 -2.66852
rtoes -9.93804
lfemur -21.6889 -2.37773 -20.5899
ltibia 22.4949
lfoot -0.65204 -2.2821
ltoes -1.81767
84
root -8.71804 17.4523 -22.4421 -0.684851 -6.17092 0.182425
lowerback 5.69483 1.94577 -0.471336
upperback -0.0341004 2.61493 1.60541
thorax -3.32345 1.3213 1.69649
lowerneck -16.0935 -3.81964 -9.01855
upperneck 22.8879 -4.44046 5.93856
head 10.3159 -2.14586 3.01493
rclavicle -2.3233e-015 1.11319e-014
rhumerus -28.2821 -12.9653 -78.6941
rradius 32.1831
rwrist 7.40609
rhand -15.66 8.63729
rfingers 7.12502
rthumb 10.5281 -21.079
lclavicle -2.3233e-015 1.11319e-014
lhumerus -34.5839 16.0879 82.4598
lradius 18.2617
lwrist -17.8274
lhand -14.5265 27.4352
lfingers 7.12502
lthumb 11.6214 57.0929
rfemur 3.84604 1.596 22.7367
rtibia 43.1795
rfoot 1.35159 -1.9326
rtoes -7.02514
lfemur -21.1829 -2.04476 -21.1658
ltibia 22.7307
lfoot -1.04773 -3.20252
ltoes -0.0521108
85
root -8.69778 17.4652 -22.2789 -0.836199 -6.23666 0.0905366
lowerback 5.73129 1.88653 -0.279519
upperback 0.113807 2.54835 1.6612
thorax -3.18292 1.28424 1.65389
lowerneck -16.4367 -3.77357 -9.17659
upperneck 22.933 -4.32542 6.03302
head 10.3942 -2.09065 3.08999
rclavicle -1.17159e-014 -5.1684e-015
rhumerus -28.4095 -13.503 -78.6132
rradius 32.014
rwrist 7.64416
rhand -15.095 9.00681
rfingers 7.12502
rthumb 11.0731 -20.6811
lclavicle -1.17159e-014 -5.1684e-015
lhumerus -34.3818 15.9385 82.595
lradius 18.5788
lwrist -17.4309
lhand -12.6716 28.1375
lfingers 7.12502
lthumb 13.4097 57.6859
rfemur 2.57835 1.23673 22.5214
rtibia 45.7269
rfoot 4.01789 -1.12851
rtoes -3.90078
lfemur -20.4881 -1.83117 -21.2785
ltibia 22.9089
lfoot -1.44004 -3.47584
ltoes 0.139392
86
root -8.67852 17.4789 -22.1164 -1.03585 -6.51 0.27099
lowerback 5.9936 1.86957 -0.526595
upperback 0.016612 2.51481 1.75097
thorax -3.4444 1.2736 1.8777
lowerneck -16.2754 -3.6664 -9.48462
upperneck 23.0364 -4.1254 6.09795
head 10.3925 -2.02229 3.19682
rclavicle 9.41742e-015 -5.56597e-015
rhumerus -29.0399 -13.6335 -78.2838
rradius 31.8813
rwrist 7.72236
rhand -14.1047 10.0272
rfingers 7.12502
rthumb 12.0281 -19.6071
lclavicle 9.41742e-015 -5.56597e-015
lhumerus -34.7891 16.1637 82.5609
lradius 18.9698
lwrist -17.4187
lhand -9.78208 31.0405
lfingers 7.12502
lthumb 16.1935 60.3842
rfemur 1.30603 1.09974 22.0232
rtibia 48.3439
rfoot 6.2416 -0.406731
rtoes -0.467938
lfemur -19.6949 -1.62375 -21.6608
ltibia 22.9427
lfoot -1.79423 -3.39878
ltoes 0.349767
87
root -8.66254 17.502 -21.9583 -1.19491 -6.72023 0.72198
lowerback 6.11312 1.87192 -0.978991
upperback 0.0394061 2.48127 1.61508
thorax -3.49988 1.26356 1.99075
lowerneck -16.315 -3.61654 -9.41334
upperneck 22.9814 -4.08163 6.1449
head 10.3749 -1.98951 3.20689
rclavicle 9.57894e-015 -7.95139e-015
rhumerus -29.2944 -14.4338 -78.0817
rradius 31.3765
rwrist 7.95234
rhand -13.2626 10.6424
rfingers 7.12502
rthumb 12.84 -18.9427
lclavicle 9.57894e-015 -7.95139e-015
lhumerus -34.6499 16.2938 82.3673
lradius 19.016
lwrist -17.473
lhand -8.83534 32.3115
lfingers 7.12502
lthumb 17.1049 61.5786
rfemur -0.183521 0.961481 21.278
rtibia 50.997
rfoot 8.82981 0.00962477
rtoes 4.47184
lfemur -18.8888 -1.46967 -22.3167
ltibia 22.8238
lfoot -2.0351 -3.30012
ltoes 0.800215
88
root -8.64785 17.518 -21.8095 -1.43831 -6.81429 1.21431
lowerback 6.28276 1.92269 -1.31967
upperback 0.242399 2.51244 1.34686
thorax -3.38886 1.27995 1.9
lowerneck -16.5981 -3.67263 -9.10486
upperneck 22.7596 -4.19275 6.07508
head 10.3491 -2.01489 3.10812
rclavicle 6.52262e-015 8.74653e-015
rhumerus -29.2258 -15.3562 -78.0559
rradius 30.8131
rwrist 8.06428
rhand -12.8015 10.7361
rfingers 7.12502
rthumb 13.2845 -18.8205
lclavicle 6.52262e-015 8.74653e-015
lhumerus -34.1151 15.8417 82.3624
lradius 19.1454
lwrist -17.3549
lhand -9.65794 32.1713
lfingers 7.12502
lthumb 16.313 61.5052
rfemur -1.5917 0.728125 20.515
rtibia 53.6353
rfoot 11.7744 -0.200718
rtoes 11.6335
lfemur -17.9291 -1.36094 -23.0397
ltibia 22.4404
lfoot -2.21375 -3.23362
ltoes 0.477372
89
root -8.63484 17.5327 -21.6566 -1.72236 -7.01696 1.66379
lowerback 6.60071 1.99168 -1.67099
upperback 0.300101 2.56817 1.16001
thorax -3.51679 1.31196 1.88909
lowerneck -16.789 -3.56047 -9.02
upperneck 22.9153 -4.08984 6.23998
head 10.4336 -1.93915 3.17
rclavicle 2.65626e-014 1.59028e-015
rhumerus -29.5115 -15.9963 -77.9511
rradius 30.3753
rwrist 8.48276
rhand -12.9477 10.6433
rfingers 7.12502
rthumb 13.1437 -18.9225
lclavicle 2.65626e-014 1.59028e-015
lhumerus -33.9029 14.5876 82.7318
lradius 19.5094
lwrist -16.0834
lhand -11.3248 31.0084
lfingers 7.12502
lthumb 14.7076 60.4667
rfemur -2.95245 0.634966 19.8238
rtibia 56.1589
rfoot 14.2074 -0.64673
rtoes 17.8672
lfemur -16.7928 -1.34841 -23.6804
ltibia 21.8718
lfoot -2.31754 -3.11061
ltoes 0.117184
90
root -8.61862 17.5563 -21.482 -1.89173 -7.30387 2.30531
lowerback 6.48012 1.99818 -2.25695
upperback 0.306545 2.5305 1.02163
thorax -3.46012 1.30108 2.08258
lowerneck -16.2919 -3.65878 -9.1639
upperneck 22.2313 -4.18768 6.16213
head 10.1032 -2.00851 3.1435
rclavicle -1.77043e-014 4.37326e-015
rhumerus -29.8492 -15.9615 -77.8507
rradius 29.954
rwrist 8.53264
rhand -12.9282 10.7559
rfingers 7.12502
rthumb 13.1624 -18.8086
lclavicle -1.77043e-014 4.37326e-015
lhumerus -33.902 13.6613 83.1278
lradius 19.8015
lwrist -14.522
lhand -11.4889 30.7005
lfingers 7.12502
lthumb 14.5495 60.1702
rfemur -4.504 0.578944 18.8968
rtibia 58.548
rfoot 15.7907 -0.822627
rtoes 21.2667
lfemur -15.6709 -1.29992 -24.5549
ltibia 21.2547
lfoot -2.48749 -2.85793
ltoes 0.125132
91
root -8.60337 17.5744 -21.313 -2.04309 -7.38106 2.85917
lowerback 6.36535 1.85592 -2.79611
upperback 0.292047 2.30186 0.948961
thorax -3.41682 1.19515 2.33574
lowerneck -15.8587 -3.53755 -9.29415
upperneck 21.8753 -3.9948 6.10241
head 9.87929 -1.94152 3.16784
rclavicle -3.70236e-015 -1.98785e-015
rhumerus -30.1333 -15.8057 -77.8056
rradius 29.4548
rwrist 8.82594
rhand -12.9624 11.197
rfingers 7.12502
rthumb 13.1294 -18.3697
lclavicle -3.70236e-015 -1.98785e-015
lhumerus -34.0314 13.2103 83.3397
lradius 20.0087
lwrist -13.2331
lhand -11.4609 30.6303
lfingers 7.12502
lthumb 14.5764 60.0981
rfemur -5.9144 0.316744 18.0937
rtibia 60.7728
rfoot 16.0082 -1.10595
rtoes 21.1497
lfemur -14.5993 -1.23781 -25.3432
ltibia 20.6505
lfoot -2.79864 -2.72147
ltoes 0.590006
92
root -8.59333 17.5839 -21.1725 -2.14624 -7.23483 3.16918
lowerback 6.61915 1.73378 -3.06657
upperback 0.270004 2.10678 0.819753
thorax -3.57473 1.10378 2.36552
lowerneck -16.0639 -3.41969 -9.15631
upperneck 21.9236 -3.86206 6.1554
head 9.92065 -1.85989 3.18144
rclavicle 3.73467e-014 1.07344e-014
rhumerus -30.2432 -16.0738 -77.8184
rradius 28.798
rwrist 9.10053
rhand -13.0962 11.5757
rfingers 7.12502
rthumb 13.0004 -17.9992
lclavicle 3.73467e-014 1.07344e-014
lhumerus -33.8116 12.4371 83.4376
lradius 19.9209
lwrist -12.0373
lhand -13.1567 29.3691
lfingers 7.12502
lthumb 12.9421 58.9477
rfemur -7.33699 -0.138612 17.6427
rtibia 62.8683
rfoot 15.2359 -1.98435
rtoes 20.014
lfemur -13.7098 -1.14944 -25.8301
ltibia 20.0466
lfoot -2.97399 -2.86729
ltoes 0.958957
93
root -8.58356 17.5934 -21.0356 -2.21789 -7.08226 3.2948
lowerback 6.703 1.67883 -3.15584
upperback 0.459704 2.02337 0.756113
thorax -3.4204 1.05828 2.35894
lowerneck -16.6424 -3.39549 -9.11756
upperneck 22.0198 -3.82322 6.29801
head 10.0623 -1.81369 3.23
rclavicle -8.4732e-015 5.1684e-015
rhumerus -29.9768 -16.5013 -77.8271
rradius 28.1558
rwrist 9.40754
rhand -13.1398 11.4688
rfingers 7.12502
rthumb 12.9584 -18.1088
lclavicle -8.4732e-015 5.1684e-015
lhumerus -33.0306 11.5389 83.7588
lradius 19.7651
lwrist -10.8543
lhand -14.9103 28.6308
lfingers 7.12502
lthumb 11.2513 58.3091
rfemur -8.85346 -0.57839 17.4254
rtibia 64.7587
rfoot 14.2461 -3.1619
rtoes 19.8331
lfemur -12.9307 -0.882376 -26.0989
ltibia 19.6148
lfoot -3.37103 -3.26015
ltoes 1.53359
94
root -8.57331 17.6095 -20.8888 -2.38471 -6.9504 3.54065
lowerback 6.72223 1.60337 -3.36278
upperback 0.743179 1.90736 0.693505
thorax -3.13449 0.994575 2.42575
lowerneck -17.1457 -3.43805 -9.15486
upperneck 21.8724 -3.83249 6.35268
head 10.1075 -1.80504 3.24947
rclavicle 2.73329e-016 1.19271e-015
rhumerus -29.6211 -16.6426 -77.96
rradius 27.6893
rwrist 9.59976
rhand -13.0472 11.2467
rfingers 7.12502
rthumb 13.0477 -18.3252
lclavicle 2.73329e-016 1.19271e-015
lhumerus -32.2302 11.2167 83.9482
lradius 19.787
lwrist -10.7373
lhand -15.8935 28.7661
lfingers 7.12502
lthumb 10.3029 58.4938
rfemur -10.2628 -1.07318 17.0341
rtibia 66.45
rfoot 13.1188 -4.18384
rtoes 18.9246
lfemur -12.1232 -0.846927 -26.5114
ltibia 19.4651
lfoot -3.94554 -3.34744
ltoes 3.03189
